# This file uses centimeters as units for non-parametric coordinates.

mtllib Outlet.mtl
g default
v -0.019848 -0.500000 0.299661
v -0.019848 0.500000 0.299661
v -0.019848 0.500000 -0.299661
v -0.019848 -0.500000 -0.299661
v 0.014035 -0.494187 0.293848
v 0.019848 -0.480154 0.279815
v 0.000002 -0.500000 0.299661
v 0.014035 0.494187 0.293848
v 0.000002 0.500000 0.299661
v 0.019848 0.480154 0.279815
v 0.014035 0.494187 -0.293848
v 0.000002 0.500000 -0.299661
v 0.019848 0.480154 -0.279815
v 0.014035 -0.494187 -0.293848
v 0.000002 -0.500000 -0.299661
v 0.019848 -0.480154 -0.279815
vt 0.243738 0.040710
vt 0.230886 0.027287
vt 0.769114 0.027287
vt 0.756262 0.040710
vt 0.213228 0.010753
vt 0.786772 0.010753
vt 0.230886 0.972713
vt 0.213228 0.989247
vt 0.243738 0.959290
vt 0.769114 0.972713
vt 0.786772 0.989247
vt 0.756262 0.959290
vt 0.200339 0.000000
vt 0.200339 1.000000
vt 0.799661 1.000000
vt 0.799661 0.000000
vn 0.999921 -0.006543 0.010705
vn 0.923880 -0.382683 0.000000
vn 0.923880 -0.382683 0.000000
vn 0.999921 -0.006543 -0.010705
vn 0.382683 -0.923880 0.000000
vn 0.166455 -0.986049 0.000000
vn 0.166455 -0.986049 0.000000
vn 0.382683 -0.923880 0.000000
vn 0.167512 0.000000 0.985870
vn 0.382684 0.000000 0.923879
vn 0.382684 0.000000 0.923879
vn 0.167512 0.000000 0.985870
vn 0.923880 0.000000 0.382683
vn 0.999921 0.006543 0.010705
vn 0.923880 0.000000 0.382683
vn 0.166455 0.986049 0.000000
vn 0.382683 0.923880 0.000000
vn 0.382683 0.923880 0.000000
vn 0.166455 0.986049 0.000000
vn 0.923880 0.382683 0.000000
vn 0.999921 0.006543 -0.010705
vn 0.923880 0.382683 0.000000
vn 0.167512 0.000000 -0.985870
vn 0.382684 0.000000 -0.923879
vn 0.382684 0.000000 -0.923879
vn 0.167512 0.000000 -0.985870
vn 0.923880 0.000000 -0.382683
vn 0.923880 0.000000 -0.382683
vn 0.000000 0.000000 1.000000
vn 0.000000 0.000000 1.000000
vn 0.000000 1.000000 0.000000
vn 0.000000 1.000000 0.000000
vn 0.000000 0.000000 -1.000000
vn 0.000000 0.000000 -1.000000
vn 0.000000 -1.000000 0.000000
vn 0.000000 -1.000000 0.000000
g pCube1
usemtl lambert3SG
f 6/1/1 5/2/2 14/3/3 16/4/4
f 5/2/5 7/5/6 15/6/7 14/3/8
f 7/5/9 5/2/10 8/7/11 9/8/12
f 5/2/13 6/1/1 10/9/14 8/7/15
f 9/8/16 8/7/17 11/10/18 12/11/19
f 8/7/20 10/9/14 13/12/21 11/10/22
f 12/11/23 11/10/24 14/3/25 15/6/26
f 11/10/27 13/12/21 16/4/4 14/3/28
f 1/13/29 7/5/9 9/8/12 2/14/30
f 2/14/31 9/8/16 12/11/19 3/15/32
f 3/15/33 12/11/23 15/6/26 4/16/34
f 4/16/35 15/6/7 7/5/6 1/13/36
f 6/1/1 16/4/4 13/12/21 10/9/14
